<?xml version="1.0" encoding="UTF-8"?>
<svg xmlns="http://www.w3.org/2000/svg" version="1.1">
  <text x="6" y="16" style="font-weight:bold">SVG Sprite with Icons from popular free Icon Libraries</text>
  <text x="6" y="480" style="font-weight:bold">Use <tspan font-family="monospace">[Save as ...]</tspan> to store this page as <tspan font-family="monospace">*.svg</tspan> file.</text>
  <defs>
    
    <!--This SVG sprite contains icons from: Font Awesome Free 6.7.x - https://fontawesome.com / License https://fontawesome.com/license/free (Icons: CC BY 4.0, Fonts: SIL OFL 1.1, Code: MIT License) / Copyright 2024 Fonticons, Inc.-->
    <!--source: https://raw.githubusercontent.com/FortAwesome/Font-Awesome/refs/heads/6.x/svgs/brands/linux.svg .-->
    <symbol id="fa-brands_fa-linux" viewBox="0 0 448 512" fill="currentColor"><path d="M220.8 123.3c1 .5 1.8 1.7 3 1.7 1.1 0 2.8-.4 2.9-1.5.2-1.4-1.9-2.3-3.2-2.9-1.7-.7-3.9-1-5.5-.1-.4.2-.8.7-.6 1.1.3 1.3 2.3 1.1 3.4 1.7zm-21.9 1.7c1.2 0 2-1.2 3-1.7 1.1-.6 3.1-.4 3.5-1.6.2-.4-.2-.9-.6-1.1-1.6-.9-3.8-.6-5.5.1-1.3.6-3.4 1.5-3.2 2.9.1 1 1.8 1.5 2.8 1.4zM420 403.8c-3.6-4-5.3-11.6-7.2-19.7-1.8-8.1-3.9-16.8-10.5-22.4-1.3-1.1-2.6-2.1-4-2.9-1.3-.8-2.7-1.5-4.1-2 9.2-27.3 5.6-54.5-3.7-79.1-11.4-30.1-31.3-56.4-46.5-74.4-17.1-21.5-33.7-41.9-33.4-72C311.1 85.4 315.7.1 234.8 0 132.4-.2 158 103.4 156.9 135.2c-1.7 23.4-6.4 41.8-22.5 64.7-18.9 22.5-45.5 58.8-58.1 96.7-6 17.9-8.8 36.1-6.2 53.3-6.5 5.8-11.4 14.7-16.6 20.2-4.2 4.3-10.3 5.9-17 8.3s-14 6-18.5 14.5c-2.1 3.9-2.8 8.1-2.8 12.4 0 3.9.6 7.9 1.2 11.8 1.2 8.1 2.5 15.7.8 20.8-5.2 14.4-5.9 24.4-2.2 31.7 3.8 7.3 11.4 10.5 20.1 12.3 17.3 3.6 40.8 2.7 59.3 12.5 19.8 10.4 39.9 14.1 55.9 10.4 11.6-2.6 21.1-9.6 25.9-20.2 12.5-.1 26.3-5.4 48.3-6.6 14.9-1.2 33.6 5.3 55.1 4.1.6 2.3 1.4 4.6 2.5 6.7v.1c8.3 16.7 23.8 24.3 40.3 23 16.6-1.3 34.1-11 48.3-27.9 13.6-16.4 36-23.2 50.9-32.2 7.4-4.5 13.4-10.1 13.9-18.3.4-8.2-4.4-17.3-15.5-29.7zM223.7 87.3c9.8-22.2 34.2-21.8 44-.4 6.5 14.2 3.6 30.9-4.3 40.4-1.6-.8-5.9-2.6-12.6-4.9 1.1-1.2 3.1-2.7 3.9-4.6 4.8-11.8-.2-27-9.1-27.3-7.3-.5-13.9 10.8-11.8 23-4.1-2-9.4-3.5-13-4.4-1-6.9-.3-14.6 2.9-21.8zM183 75.8c10.1 0 20.8 14.2 19.1 33.5-3.5 1-7.1 2.5-10.2 4.6 1.2-8.9-3.3-20.1-9.6-19.6-8.4.7-9.8 21.2-1.8 28.1 1 .8 1.9-.2-5.9 5.5-15.6-14.6-10.5-52.1 8.4-52.1zm-13.6 60.7c6.2-4.6 13.6-10 14.1-10.5 4.7-4.4 13.5-14.2 27.9-14.2 7.1 0 15.6 2.3 25.9 8.9 6.3 4.1 11.3 4.4 22.6 9.3 8.4 3.5 13.7 9.7 10.5 18.2-2.6 7.1-11 14.4-22.7 18.1-11.1 3.6-19.8 16-38.2 14.9-3.9-.2-7-1-9.6-2.1-8-3.5-12.2-10.4-20-15-8.6-4.8-13.2-10.4-14.7-15.3-1.4-4.9 0-9 4.2-12.3zm3.3 334c-2.7 35.1-43.9 34.4-75.3 18-29.9-15.8-68.6-6.5-76.5-21.9-2.4-4.7-2.4-12.7 2.6-26.4v-.2c2.4-7.6.6-16-.6-23.9-1.2-7.8-1.8-15 .9-20 3.5-6.7 8.5-9.1 14.8-11.3 10.3-3.7 11.8-3.4 19.6-9.9 5.5-5.7 9.5-12.9 14.3-18 5.1-5.5 10-8.1 17.7-6.9 8.1 1.2 15.1 6.8 21.9 16l19.6 35.6c9.5 19.9 43.1 48.4 41 68.9zm-1.4-25.9c-4.1-6.6-9.6-13.6-14.4-19.6 7.1 0 14.2-2.2 16.7-8.9 2.3-6.2 0-14.9-7.4-24.9-13.5-18.2-38.3-32.5-38.3-32.5-13.5-8.4-21.1-18.7-24.6-29.9s-3-23.3-.3-35.2c5.2-22.9 18.6-45.2 27.2-59.2 2.3-1.7.8 3.2-8.7 20.8-8.5 16.1-24.4 53.3-2.6 82.4.6-20.7 5.5-41.8 13.8-61.5 12-27.4 37.3-74.9 39.3-112.7 1.1.8 4.6 3.2 6.2 4.1 4.6 2.7 8.1 6.7 12.6 10.3 12.4 10 28.5 9.2 42.4 1.2 6.2-3.5 11.2-7.5 15.9-9 9.9-3.1 17.8-8.6 22.3-15 7.7 30.4 25.7 74.3 37.2 95.7 6.1 11.4 18.3 35.5 23.6 64.6 3.3-.1 7 .4 10.9 1.4 13.8-35.7-11.7-74.2-23.3-84.9-4.7-4.6-4.9-6.6-2.6-6.5 12.6 11.2 29.2 33.7 35.2 59 2.8 11.6 3.3 23.7.4 35.7 16.4 6.8 35.9 17.9 30.7 34.8-2.2-.1-3.2 0-4.2 0 3.2-10.1-3.9-17.6-22.8-26.1-19.6-8.6-36-8.6-38.3 12.5-12.1 4.2-18.3 14.7-21.4 27.3-2.8 11.2-3.6 24.7-4.4 39.9-.5 7.7-3.6 18-6.8 29-32.1 22.9-76.7 32.9-114.3 7.2zm257.4-11.5c-.9 16.8-41.2 19.9-63.2 46.5-13.2 15.7-29.4 24.4-43.6 25.5s-26.5-4.8-33.7-19.3c-4.7-11.1-2.4-23.1 1.1-36.3 3.7-14.2 9.2-28.8 9.9-40.6.8-15.2 1.7-28.5 4.2-38.7 2.6-10.3 6.6-17.2 13.7-21.1.3-.2.7-.3 1-.5.8 13.2 7.3 26.6 18.8 29.5 12.6 3.3 30.7-7.5 38.4-16.3 9-.3 15.7-.9 22.6 5.1 9.9 8.5 7.1 30.3 17.1 41.6 10.6 11.6 14 19.5 13.7 24.6zM173.3 148.7c2 1.9 4.7 4.5 8 7.1 6.6 5.2 15.8 10.6 27.3 10.6 11.6 0 22.5-5.9 31.8-10.8 4.9-2.6 10.9-7 14.8-10.4s5.9-6.3 3.1-6.6-2.6 2.6-6 5.1c-4.4 3.2-9.7 7.4-13.9 9.8-7.4 4.2-19.5 10.2-29.9 10.2s-18.7-4.8-24.9-9.7c-3.1-2.5-5.7-5-7.7-6.9-1.5-1.4-1.9-4.6-4.3-4.9-1.4-.1-1.8 3.7 1.7 6.5z"/></symbol>
    <!--source: https://raw.githubusercontent.com/FortAwesome/Font-Awesome/refs/heads/6.x/svgs/solid/bug.svg .-->
    <symbol id="fa-solid_fa-bug" viewBox="0 0 512 512" fill="currentColor"><path d="M256 0c53 0 96 43 96 96l0 3.6c0 15.7-12.7 28.4-28.4 28.4l-135.1 0c-15.7 0-28.4-12.7-28.4-28.4l0-3.6c0-53 43-96 96-96zM41.4 105.4c12.5-12.5 32.8-12.5 45.3 0l64 64c.7 .7 1.3 1.4 1.9 2.1c14.2-7.3 30.4-11.4 47.5-11.4l112 0c17.1 0 33.2 4.1 47.5 11.4c.6-.7 1.2-1.4 1.9-2.1l64-64c12.5-12.5 32.8-12.5 45.3 0s12.5 32.8 0 45.3l-64 64c-.7 .7-1.4 1.3-2.1 1.9c6.2 12 10.1 25.3 11.1 39.5l64.3 0c17.7 0 32 14.3 32 32s-14.3 32-32 32l-64 0c0 24.6-5.5 47.8-15.4 68.6c2.2 1.3 4.2 2.9 6 4.8l64 64c12.5 12.5 12.5 32.8 0 45.3s-32.8 12.5-45.3 0l-63.1-63.1c-24.5 21.8-55.8 36.2-90.3 39.6L272 240c0-8.8-7.2-16-16-16s-16 7.2-16 16l0 239.2c-34.5-3.4-65.8-17.8-90.3-39.6L86.6 502.6c-12.5 12.5-32.8 12.5-45.3 0s-12.5-32.8 0-45.3l64-64c1.9-1.9 3.9-3.4 6-4.8C101.5 367.8 96 344.6 96 320l-64 0c-17.7 0-32-14.3-32-32s14.3-32 32-32l64.3 0c1.1-14.1 5-27.5 11.1-39.5c-.7-.6-1.4-1.2-2.1-1.9l-64-64c-12.5-12.5-12.5-32.8 0-45.3z"/></symbol>
    <!--This SVG sprite contains icons from: Bootstrap Icons (latest) - https://icons.getbootstrap.com / MIT License https://mit-license.org-->
    <!--source: https://raw.githubusercontent.com/twbs/icons/refs/heads/main/icons/cookie.svg .-->
    <symbol id="bi_bi-cookie" fill="currentColor" viewBox="0 0 16 16"><path d="M6 7.5a1.5 1.5 0 1 1-3 0 1.5 1.5 0 0 1 3 0m4.5.5a1.5 1.5 0 1 0 0-3 1.5 1.5 0 0 0 0 3m-.5 3.5a1.5 1.5 0 1 1-3 0 1.5 1.5 0 0 1 3 0"/><path d="M8 0a7.96 7.96 0 0 0-4.075 1.114q-.245.102-.437.28A8 8 0 1 0 8 0m3.25 14.201a1.5 1.5 0 0 0-2.13.71A7 7 0 0 1 8 15a6.97 6.97 0 0 1-3.845-1.15 1.5 1.5 0 1 0-2.005-2.005A6.97 6.97 0 0 1 1 8c0-1.953.8-3.719 2.09-4.989a1.5 1.5 0 1 0 2.469-1.574A7 7 0 0 1 8 1c1.42 0 2.742.423 3.845 1.15a1.5 1.5 0 1 0 2.005 2.005A6.97 6.97 0 0 1 15 8c0 .596-.074 1.174-.214 1.727a1.5 1.5 0 1 0-1.025 2.25 7 7 0 0 1-2.51 2.224Z"/></symbol>
    <!--This SVG sprite contains icons from: Teenyicons - https://github.com/teenyicons/teenyicons / MIT License https://mit-license.org-->
    <!--source: https://raw.githubusercontent.com/teenyicons/teenyicons/refs/heads/master/src//solid/pdf.svg .-->
    <symbol id="teenyicons_teenyicons-pdf-solid" viewBox="0 0 15 15" fill="none"><path d="M3.5 8H3V7H3.5C3.77614 7 4 7.22386 4 7.5C4 7.77614 3.77614 8 3.5 8Z" fill="currentColor"/><path d="M7 10V7H7.5C7.77614 7 8 7.22386 8 7.5V9.5C8 9.77614 7.77614 10 7.5 10H7Z" fill="currentColor"/><path fill-rule="evenodd" clip-rule="evenodd" d="M1 1.5C1 0.671573 1.67157 0 2.5 0H10.7071L14 3.29289V13.5C14 14.3284 13.3284 15 12.5 15H2.5C1.67157 15 1 14.3284 1 13.5V1.5ZM3.5 6H2V11H3V9H3.5C4.32843 9 5 8.32843 5 7.5C5 6.67157 4.32843 6 3.5 6ZM7.5 6H6V11H7.5C8.32843 11 9 10.3284 9 9.5V7.5C9 6.67157 8.32843 6 7.5 6ZM10 11V6H13V7H11V8H12V9H11V11H10Z" fill="currentColor"/></symbol>
    <!--source: https://raw.githubusercontent.com/teenyicons/teenyicons/refs/heads/master/src//outline/cog.svg .-->
    <symbol id="teenyicons_teenyicons-cog-outline" viewBox="0 0 15 15" fill="none"><path fill-rule="evenodd" clip-rule="evenodd" d="M5.944 0.5L5.858 0.936707L5.52901 2.53467C5.00301 2.73554 4.526 3.02037 4.095 3.35815L2.487 2.8205L2.05501 2.68658L1.83101 3.07233L0.723999 4.9231L0.5 5.3089L0.828003 5.5957L2.07201 6.65399C2.02701 6.93081 1.96901 7.20461 1.96901 7.49542C1.96901 7.78623 2.02701 8.0601 2.07201 8.33691L0.828003 9.3952L0.5 9.68201L0.723999 10.0677L1.83101 11.9186L2.05501 12.3053L2.487 12.1704L4.095 11.6328C4.526 11.9705 5.00301 12.2553 5.52901 12.4562L5.858 14.0541L5.944 14.4909H9.05501L9.142 14.0541L9.47 12.4562C9.996 12.2553 10.473 11.9705 10.904 11.6328L12.512 12.1704L12.944 12.3053L13.169 11.9186L14.275 10.0677L14.5 9.68201L14.171 9.3952L12.927 8.33691C12.973 8.0601 13.03 7.78623 13.03 7.49542C13.03 7.20461 12.973 6.93081 12.927 6.65399L14.171 5.5957L14.5 5.3089L14.275 4.9231L13.169 3.07233L12.944 2.68658L12.512 2.8205L10.904 3.35815C10.473 3.02037 9.996 2.73554 9.47 2.53467L9.142 0.936707L9.05501 0.5H5.944Z" stroke="currentColor" stroke-linecap="square" stroke-linejoin="round"/><path fill-rule="evenodd" clip-rule="evenodd" d="M9.49963 7.49542C9.49963 8.5987 8.60363 9.49414 7.49963 9.49414C6.39563 9.49414 5.49963 8.5987 5.49963 7.49542C5.49963 6.39214 6.39563 5.49677 7.49963 5.49677C8.60363 5.49677 9.49963 6.39214 9.49963 7.49542Z" stroke="currentColor" stroke-linecap="square" stroke-linejoin="round"/></symbol>
    <!--This SVG sprite contains icons from: Material Design Icons by Google - https://github.com/material-icons/material-icons / Apache2 License https://www.apache.org/licenses/LICENSE-2.0-->
    <!--source: https://raw.githubusercontent.com/material-icons/material-icons/refs/heads/master/svg/alarm_add/baseline.svg .-->
    <symbol id="ic_ic-baseline-alarm-add" viewBox="0 0 24 24" fill="currentColor"><path d="M7.88 3.39L6.6 1.86L2 5.71l1.29 1.53l4.59-3.85zM22 5.72l-4.6-3.86l-1.29 1.53l4.6 3.86L22 5.72zM12 4c-4.97 0-9 4.03-9 9s4.02 9 9 9a9 9 0 0 0 0-18zm0 16c-3.87 0-7-3.13-7-7s3.13-7 7-7s7 3.13 7 7s-3.13 7-7 7zm1-11h-2v3H8v2h3v3h2v-3h3v-2h-3V9z"/></symbol>
    <!--source: https://raw.githubusercontent.com/material-icons/material-icons/refs/heads/master/svg/assignment_ind/twotone.svg .-->
    <symbol id="ic_ic-twotone-assignment-ind" viewBox="0 0 24 24" fill="currentColor"><path opacity=".3" d="M19 5H5v14h14V5zm-7 1c1.65 0 3 1.35 3 3s-1.35 3-3 3s-3-1.35-3-3s1.35-3 3-3zm6 12H6v-1.53c0-2.5 3.97-3.58 6-3.58s6 1.08 6 3.58V18z"/><path d="M20.66 3.88c-.14-.21-.33-.4-.54-.54c-.11-.07-.22-.13-.34-.18c-.24-.1-.5-.16-.78-.16h-4.18C14.4 1.84 13.3 1 12 1s-2.4.84-2.82 2H5c-1.1 0-2 .9-2 2v14c0 1.1.9 2 2 2h14c.28 0 .54-.06.78-.16c.12-.05.23-.11.34-.18c.21-.14.4-.33.54-.54c.21-.32.34-.71.34-1.12V5c0-.41-.13-.8-.34-1.12zM12 2.75c.22 0 .41.1.55.25c.12.13.2.31.2.5c0 .41-.34.75-.75.75s-.75-.34-.75-.75c0-.19.08-.37.2-.5c.14-.15.33-.25.55-.25zM19 19H5V5h14v14zm-7-7c1.65 0 3-1.35 3-3s-1.35-3-3-3s-3 1.35-3 3s1.35 3 3 3zm0-2c-.55 0-1-.45-1-1s.45-1 1-1s1 .45 1 1s-.45 1-1 1zm0 2.88c-2.03 0-6 1.08-6 3.58V18h12v-1.53c0-2.51-3.97-3.59-6-3.59zM8.31 16c.69-.56 2.38-1.12 3.69-1.12s3.01.56 3.69 1.12H8.31z"/></symbol>
    <!--This SVG sprite contains icons from: Academicons by JPWalsh - https://jpswalsh.github.io/academicons / SIL Open Font License https://openfontlicense.org/-->
    <!--source: https://raw.githubusercontent.com/jpswalsh/academicons/refs/heads/master/svg/springer-square.svg .-->
    <symbol id="ai_ai-springer-square" version="1.1" viewBox="0 0 448 512" fill="currentColor"><path d="M 48 32 C 21.5 32 0 53.5 0 80 L 0 432 C 0 458.5 21.5 480 48 480 L 400 480 C 426.5 480 448 458.5 448 432 L 448 80 C 448 53.5 426.5 32 400 32 L 48 32 z M 203.54297 96.003906 C 220.88839 96.226393 227.50013 106.98293 230.77344 118.86328 C 236.64434 119.31501 242.06599 120.20832 247.03125 121.10156 C 247.93688 118.41091 250.64788 116.14062 253.80664 116.14062 C 257.8692 116.14062 260.58203 119.31537 260.58203 122.91016 L 260.58203 124.7168 C 270.06342 127.87921 279.09255 132.39145 287.22461 137.36328 C 288.58048 135.55529 290.38399 134.65039 292.64258 134.65039 C 296.7066 134.65039 299.41992 137.81536 299.41992 141.44336 C 299.41992 143.22981 298.96777 144.58411 298.0625 145.48828 C 305.74247 151.82841 312.06552 159.49168 317.9375 167.61719 C 318.83622 167.1651 320.19152 166.71289 321.0957 166.71289 C 325.15826 166.71289 328.32422 169.87818 328.32422 173.49414 C 328.32422 176.21686 326.96905 178.45413 324.70898 179.35938 C 329.22874 187.50712 332.83825 196.53819 335.54492 205.99805 C 335.99701 205.55655 336.90143 205.55469 337.35352 205.55469 C 341.41759 205.55469 344.12891 208.71886 344.12891 212.32422 C 344.12891 215.94055 341.86928 218.65483 339.16406 219.10547 C 340.97093 228.57737 342.3219 238.06934 343.22461 248.00391 C 347.28719 248.00391 350.45312 251.15718 350.45312 254.78516 C 350.45313 258.84116 347.2886 261.5432 343.67773 262.00586 C 343.67773 271.48834 343.22498 281.87402 342.32227 291.80859 C 345.93821 292.26031 348.64453 295.41449 348.64453 299.04102 C 348.64453 302.64639 345.48408 305.8125 341.41602 305.8125 L 340.9707 305.8125 C 339.16273 315.74598 337.35421 325.67926 335.09961 336.06445 L 335.09766 336.06641 L 354.0625 336.06641 L 354.0625 349.16406 L 140.90625 349.16406 L 140.90625 336.06641 L 158.97266 336.06641 C 162.13142 293.61856 202.77725 277.83134 225.35742 243.49805 L 199.16602 243.49805 C 186.5182 248.00724 167.55078 276.02216 167.55078 292.26367 L 134.58398 292.26367 L 135.03516 278.71289 L 124.19727 287.75391 L 95.292969 254.3457 C 95.292969 254.3457 93.9375 252.52502 93.9375 251.1582 C 93.9375 249.81288 94.390625 248.91016 94.390625 248.91016 L 140.00195 187.05664 L 148.13477 162.66797 L 160.32812 158.13672 L 172.9707 140.54102 L 168.45312 109.8125 C 180.64666 105.30187 192.39146 109.35983 198.27148 115.23438 C 198.71152 106.21674 197.80664 96.283203 197.80664 96.283203 C 199.8389 96.070331 201.74862 95.98089 203.54297 96.003906 z M 210.91016 110.26367 C 210.91016 110.26367 210.90893 126.52445 207.29297 142.78711 L 195.09961 140.53906 C 195.09961 129.24679 190.13215 124.71805 183.35742 121.55273 L 186.51953 143.68164 L 178.8418 154.97266 L 182.45703 165.36719 L 158.52148 173.49414 L 151.74609 192.91016 L 109.74609 250.7168 L 125.55469 269.68164 L 143.16797 254.78711 L 147.23047 257.48633 L 147.23047 279.61719 L 156.71094 279.61719 C 160.77496 263.81721 173.8718 245.29442 186.06641 236.26367 L 179.29297 228.13672 L 189.22656 219.57031 L 198.71289 231.30273 C 198.71289 231.30273 232.58398 231.30284 232.58398 230.86133 C 237.55179 220.01312 240.70898 206.90259 240.70898 191.55469 L 253.80859 191.55469 C 253.80859 243.05371 228.07006 263.35261 196.00195 294.97266 C 184.2605 306.70316 173.87346 319.36169 172.51758 336.51758 L 321.54883 336.51758 C 347.73985 228.57869 317.03443 142.78781 233.49023 132.84375 C 233.93683 137.36389 233.93555 140.99259 233.93555 144.58594 C 233.93555 150.01132 233.49023 154.51953 233.49023 154.51953 L 220.39062 152.28125 C 220.85473 147.74949 221.74888 117.04385 210.91016 110.26367 z M 184.71289 178.45508 L 185.16406 186.60352 L 164.84375 197.44141 L 163.48828 180.71484 L 184.71289 178.45508 z M 125.10352 236.25977 L 133.22852 236.71289 C 133.68171 242.5889 132.77596 251.61972 129.61719 256.12891 L 129.61719 256.13086 L 120.13672 252.52539 C 123.29403 248.00526 125.10352 241.68516 125.10352 236.25977 z M 140.9082 389.82617 L 353.61328 389.82617 L 353.61328 416 L 140.9082 416 L 140.9082 389.82617 z " id="path2"/></symbol>
    <!--This SVG sprite contains icons from: Octicons by GitHub - https://primer.style/octicons / MIT License https://mit-license.org-->
    <!--source: https://raw.githubusercontent.com/primer/octicons/refs/heads/main/icons/people-24.svg .-->
    <symbol id="oct_oct-people-24" viewBox="0 0 24 24" fill="currentColor"><path d="M3.5 8a5.5 5.5 0 1 1 8.596 4.547 9.005 9.005 0 0 1 5.9 8.18.751.751 0 0 1-1.5.045 7.5 7.5 0 0 0-14.993 0 .75.75 0 0 1-1.499-.044 9.005 9.005 0 0 1 5.9-8.181A5.496 5.496 0 0 1 3.5 8ZM9 4a4 4 0 1 0 0 8 4 4 0 0 0 0-8Zm8.29 4c-.148 0-.292.01-.434.03a.75.75 0 1 1-.212-1.484 4.53 4.53 0 0 1 3.38 8.097 6.69 6.69 0 0 1 3.956 6.107.75.75 0 0 1-1.5 0 5.193 5.193 0 0 0-3.696-4.972l-.534-.16v-1.676l.41-.209A3.03 3.03 0 0 0 17.29 8Z"/></symbol>
    <!--This SVG sprite contains icons from: Lucide - https://lucide.dev/license / License https://lucide.dev/license (ISC license)-->
    <!--source: https://raw.githubusercontent.com/lucide-icons/lucide/refs/heads/main/icons/rabbit.svg .-->
    <symbol id="lucide_lucide-rabbit" viewBox="0 0 24 24" fill="none" stroke="currentColor" stroke-width="2" stroke-linecap="round" stroke-linejoin="round"><path d="M13 16a3 3 0 0 1 2.24 5"/><path d="M18 12h.01"/><path d="M18 21h-8a4 4 0 0 1-4-4 7 7 0 0 1 7-7h.2L9.6 6.4a1 1 0 1 1 2.8-2.8L15.8 7h.2c3.3 0 6 2.7 6 6v1a2 2 0 0 1-2 2h-1a3 3 0 0 0-3 3"/><path d="M20 8.54V4a2 2 0 1 0-4 0v3"/><path d="M7.612 12.524a3 3 0 1 0-1.6 4.3"/></symbol>
    <!--This SVG sprite contains icons from: Heroicons by TailwindCSS - https://heroicons.com / MIT License https://mit-license.org-->
    <!--source: https://raw.githubusercontent.com/tailwindlabs/heroicons/refs/heads/master/optimized/24/outline/truck.svg .-->
    <symbol id="hero-24-outline_hero-truck" fill="none" viewBox="0 0 24 24" stroke-width="1.5" stroke="currentColor" aria-hidden="true" data-slot="icon"><path stroke-linecap="round" stroke-linejoin="round" d="M8.25 18.75a1.5 1.5 0 0 1-3 0m3 0a1.5 1.5 0 0 0-3 0m3 0h6m-9 0H3.375a1.125 1.125 0 0 1-1.125-1.125V14.25m17.25 4.5a1.5 1.5 0 0 1-3 0m3 0a1.5 1.5 0 0 0-3 0m3 0h1.125c.621 0 1.129-.504 1.09-1.124a17.902 17.902 0 0 0-3.213-9.193 2.056 2.056 0 0 0-1.58-.86H14.25M16.5 18.75h-2.25m0-11.177v-.958c0-.568-.422-1.048-.987-1.106a48.554 48.554 0 0 0-10.026 0 1.106 1.106 0 0 0-.987 1.106v7.635m12-6.677v6.677m0 4.5v-4.5m0 0h-12"/></symbol>
    <!--This SVG sprite contains icons from: Tabler Icons - https://tabler.io/icons / MIT License https://mit-license.org-->
    <!--source: https://raw.githubusercontent.com/tabler/tabler-icons/refs/heads/main/icons/outline/plant.svg .-->
    <symbol id="tabler-outline_tabler-plant" viewBox="0 0 24 24" fill="none" stroke="currentColor" stroke-width="2" stroke-linecap="round" stroke-linejoin="round"><path d="M7 15h10v4a2 2 0 0 1 -2 2h-6a2 2 0 0 1 -2 -2v-4z"/><path d="M12 9a6 6 0 0 0 -6 -6h-3v2a6 6 0 0 0 6 6h3"/><path d="M12 11a6 6 0 0 1 6 -6h3v1a6 6 0 0 1 -6 6h-3"/><path d="M12 15l0 -6"/></symbol>
    <!--This SVG sprite contains icons from: Phosphor Icons - https://phosphoricons.com / MIT License https://mit-license.org-->
    <!--source: https://raw.githubusercontent.com/phosphor-icons/core/refs/heads/main/assets/duotone/bathtub-duotone.svg .-->
    <symbol id="phosphor-duotone_phosphor-bathtub" viewBox="0 0 256 256" fill="currentColor"><path d="M240,104v40a48,48,0,0,1-48,48H64a48,48,0,0,1-48-48V104H136v40h64V104Z" opacity="0.2"/><path d="M240,96H208a8,8,0,0,0-8-8H136a8,8,0,0,0-8,8H64V52A12,12,0,0,1,76,40a12.44,12.44,0,0,1,12.16,9.59,8,8,0,0,0,15.68-3.18A28.32,28.32,0,0,0,76,24,28,28,0,0,0,48,52V96H16a8,8,0,0,0-8,8v40a56.06,56.06,0,0,0,56,56v16a8,8,0,0,0,16,0V200h96v16a8,8,0,0,0,16,0V200a56.06,56.06,0,0,0,56-56V104A8,8,0,0,0,240,96Zm-48,8v32H144V104Zm40,40a40,40,0,0,1-40,40H64a40,40,0,0,1-40-40V112H128v32a8,8,0,0,0,8,8h64a8,8,0,0,0,8-8V112h24Z"/></symbol>
    <!--This SVG sprite contains icons from: Radix by WorkOS - https://www.radix-ui.com/icons / MIT License https://mit-license.org-->
    <!--source: https://raw.githubusercontent.com/radix-ui/icons/refs/heads/master/packages/radix-icons/icons/rocket.svg .-->
    <symbol id="radix_radix-rocket" viewBox="0 0 15 15" fill="none"><path fill-rule="evenodd" clip-rule="evenodd" d="M6.85357 3.85355L7.65355 3.05353C8.2981 2.40901 9.42858 1.96172 10.552 1.80125C11.1056 1.72217 11.6291 1.71725 12.0564 1.78124C12.4987 1.84748 12.7698 1.97696 12.8965 2.10357C13.0231 2.23018 13.1526 2.50125 13.2188 2.94357C13.2828 3.37086 13.2779 3.89439 13.1988 4.44801C13.0383 5.57139 12.591 6.70188 11.9464 7.34645L7.49999 11.7929L6.35354 10.6465C6.15827 10.4512 5.84169 10.4512 5.64643 10.6465C5.45117 10.8417 5.45117 11.1583 5.64643 11.3536L7.14644 12.8536C7.34171 13.0488 7.65829 13.0488 7.85355 12.8536L8.40073 12.3064L9.57124 14.2572C9.65046 14.3893 9.78608 14.4774 9.9389 14.4963C10.0917 14.5151 10.2447 14.4624 10.3535 14.3536L12.3535 12.3536C12.4648 12.2423 12.5172 12.0851 12.495 11.9293L12.0303 8.67679L12.6536 8.05355C13.509 7.19808 14.0117 5.82855 14.1887 4.58943C14.2784 3.9618 14.2891 3.33847 14.2078 2.79546C14.1287 2.26748 13.9519 1.74482 13.6035 1.39645C13.2552 1.04809 12.7325 0.871332 12.2045 0.792264C11.6615 0.710945 11.0382 0.721644 10.4105 0.8113C9.17143 0.988306 7.80189 1.491 6.94644 2.34642L6.32322 2.96968L3.07071 2.50504C2.91492 2.48278 2.75773 2.53517 2.64645 2.64646L0.646451 4.64645C0.537579 4.75533 0.484938 4.90829 0.50375 5.0611C0.522563 5.21391 0.61073 5.34954 0.742757 5.42876L2.69364 6.59928L2.14646 7.14645C2.0527 7.24022 2.00002 7.3674 2.00002 7.50001C2.00002 7.63261 2.0527 7.75979 2.14646 7.85356L3.64647 9.35356C3.84173 9.54883 4.15831 9.54883 4.35357 9.35356C4.54884 9.1583 4.54884 8.84172 4.35357 8.64646L3.20712 7.50001L3.85357 6.85356L6.85357 3.85355ZM10.0993 13.1936L9.12959 11.5775L11.1464 9.56067L11.4697 11.8232L10.0993 13.1936ZM3.42251 5.87041L5.43935 3.85356L3.17678 3.53034L1.80638 4.90074L3.42251 5.87041ZM2.35356 10.3535C2.54882 10.1583 2.54882 9.8417 2.35356 9.64644C2.1583 9.45118 1.84171 9.45118 1.64645 9.64644L0.646451 10.6464C0.451188 10.8417 0.451188 11.1583 0.646451 11.3535C0.841713 11.5488 1.1583 11.5488 1.35356 11.3535L2.35356 10.3535ZM3.85358 11.8536C4.04884 11.6583 4.04885 11.3417 3.85359 11.1465C3.65833 10.9512 3.34175 10.9512 3.14648 11.1465L1.14645 13.1464C0.95119 13.3417 0.951187 13.6583 1.14645 13.8535C1.34171 14.0488 1.65829 14.0488 1.85355 13.8536L3.85358 11.8536ZM5.35356 13.3535C5.54882 13.1583 5.54882 12.8417 5.35356 12.6464C5.1583 12.4512 4.84171 12.4512 4.64645 12.6464L3.64645 13.6464C3.45119 13.8417 3.45119 14.1583 3.64645 14.3535C3.84171 14.5488 4.1583 14.5488 4.35356 14.3535L5.35356 13.3535ZM9.49997 6.74881C10.1897 6.74881 10.7488 6.1897 10.7488 5.5C10.7488 4.8103 10.1897 4.25118 9.49997 4.25118C8.81026 4.25118 8.25115 4.8103 8.25115 5.5C8.25115 6.1897 8.81026 6.74881 9.49997 6.74881Z" fill="currentColor"/></symbol>
    <!--This SVG sprite contains icons from: Clarity Design by VMWare - https://clarity.design/icons / MIT License https://mit-license.org-->
    <!--source: https://raw.githubusercontent.com/vmware-archive/clarity-assets/refs/heads/master/icons/essential/objects-solid.svg .-->
    <symbol id="clr-essential_clr-objects-solid" version="1.1" viewBox="0 0 36 36" preserveAspectRatio="xMidYMid meet" fill="currentColor"><title/><path class="clr-i-solid clr-i-solid-path-1" d="M10.65,24.44a9.51,9.51,0,0,1,7.06-9.17L13,3a1,1,0,0,0-1.87,0L2.07,26.56A1,1,0,0,0,3,27.92h8.32A9.44,9.44,0,0,1,10.65,24.44Z"/><path class="clr-i-solid clr-i-solid-path-2" d="M32,10H20a1,1,0,0,0-1,1v4a9.43,9.43,0,0,1,10.63,9H32a1,1,0,0,0,1-1V11A1,1,0,0,0,32,10Z"/><circle class="clr-i-solid clr-i-solid-path-3" cx="20.15" cy="24.44" r="7.5"/><rect x="0" y="0" width="36" height="36" fill-opacity="0"/></symbol>
    <!--This SVG sprite contains icons from: Simple Icons - https://simpleicons.org / License: https://github.com/simple-icons/simple-icons/blob/master/DISCLAIMER.md (CC0, individual license for icons)-->
    <!--source: https://raw.githubusercontent.com/simple-icons/simple-icons/refs/heads/develop/icons/buymeacoffee.svg .-->
    <symbol id="simple_simple-buymeacoffee" role="img" viewBox="0 0 24 24" fill="currentColor"><title/><path d="M20.216 6.415l-.132-.666c-.119-.598-.388-1.163-1.001-1.379-.197-.069-.42-.098-.57-.241-.152-.143-.196-.366-.231-.572-.065-.378-.125-.756-.192-1.133-.057-.325-.102-.69-.25-.987-.195-.4-.597-.634-.996-.788a5.723 5.723 0 00-.626-.194c-1-.263-2.05-.36-3.077-.416a25.834 25.834 0 00-3.7.062c-.915.083-1.88.184-2.75.5-.318.116-.646.256-.888.501-.297.302-.393.77-.177 1.146.154.267.415.456.692.58.36.162.737.284 1.123.366 1.075.238 2.189.331 3.287.37 1.218.05 2.437.01 3.65-.118.299-.033.598-.073.896-.119.352-.054.578-.513.474-.834-.124-.383-.457-.531-.834-.473-.466.074-.96.108-1.382.146-1.177.08-2.358.082-3.536.006a22.228 22.228 0 01-1.157-.107c-.086-.01-.18-.025-.258-.036-.243-.036-.484-.08-.724-.13-.111-.027-.111-.185 0-.212h.005c.277-.06.557-.108.838-.147h.002c.131-.009.263-.032.394-.048a25.076 25.076 0 013.426-.12c.674.019 1.347.067 2.017.144l.228.031c.267.04.533.088.798.145.392.085.895.113 1.07.542.055.137.08.288.111.431l.319 1.484a.237.237 0 01-.199.284h-.003c-.037.006-.075.01-.112.015a36.704 36.704 0 01-4.743.295 37.059 37.059 0 01-4.699-.304c-.14-.017-.293-.042-.417-.06-.326-.048-.649-.108-.973-.161-.393-.065-.768-.032-1.123.161-.29.16-.527.404-.675.701-.154.316-.199.66-.267 1-.069.34-.176.707-.135 1.056.087.753.613 1.365 1.37 1.502a39.69 39.69 0 0011.343.376.483.483 0 01.535.53l-.071.697-1.018 9.907c-.041.41-.047.832-.125 1.237-.122.637-.553 1.028-1.182 1.171-.577.131-1.165.2-1.756.205-.656.004-1.31-.025-1.966-.022-.699.004-1.556-.06-2.095-.58-.475-.458-.54-1.174-.605-1.793l-.731-7.013-.322-3.094c-.037-.351-.286-.695-.678-.678-.336.015-.718.3-.678.679l.228 2.185.949 9.112c.147 1.344 1.174 2.068 2.446 2.272.742.12 1.503.144 2.257.156.966.016 1.942.053 2.892-.122 1.408-.258 2.465-1.198 2.616-2.657.34-3.332.683-6.663 1.024-9.995l.215-2.087a.484.484 0 01.39-.426c.402-.078.787-.212 1.074-.518.455-.488.546-1.124.385-1.766zm-1.478.772c-.145.137-.363.201-.578.233-2.416.359-4.866.54-7.308.46-1.748-.06-3.477-.254-5.207-.498-.17-.024-.353-.055-.47-.18-.22-.236-.111-.71-.054-.995.052-.26.152-.609.463-.646.484-.057 1.046.148 1.526.22.577.088 1.156.159 1.737.212 2.48.226 5.002.19 7.472-.14.45-.06.899-.13 1.345-.21.399-.072.84-.206 1.08.206.166.281.188.657.162.974a.544.544 0 01-.169.364zm-6.159 3.9c-.862.37-1.84.788-3.109.788a5.884 5.884 0 01-1.569-.217l.877 9.004c.065.78.717 1.38 1.5 1.38 0 0 1.243.065 1.658.065.447 0 1.786-.065 1.786-.065.783 0 1.434-.6 1.499-1.38l.94-9.95a3.996 3.996 0 00-1.322-.238c-.826 0-1.491.284-2.26.613z"/></symbol>
    <!--This SVG sprite contains icons from: Iconnoir - https://iconoir.com / MIT License https://mit-license.org-->
    <!--source: https://raw.githubusercontent.com/iconoir-icons/iconoir/refs/heads/main/icons/regular/jellyfish.svg .-->
    <symbol id="iconoir-regular_iconoir-jellyfish" viewBox="0 0 24 24" stroke-width="1.5" fill="currentColor"><path d="M12 2C16.9706 2 21 6.10406 21 11.1667C21 11.235 20.9993 11.3031 20.9978 11.3711C20.9773 12.3247 20.1331 13 19.1792 13H4.82077C3.8669 13 3.02268 12.3247 3.00219 11.3711C3.00073 11.3031 3 11.235 3 11.1667C3 6.10406 7.02944 2 12 2Z" stroke="currentColor" stroke-linecap="round" stroke-linejoin="round"/><path d="M6 13L7 14.125C7.5703 14.7666 7.5703 15.7334 7 16.375V16.375C6.4297 17.0166 6.4297 17.9834 7 18.625V18.625C7.5703 19.2666 7.5703 20.2334 7 20.875L6 22" stroke="currentColor" stroke-linecap="round" stroke-linejoin="round"/><path d="M11 13L12 14.125C12.5703 14.7666 12.5703 15.7334 12 16.375V16.375C11.4297 17.0166 11.4297 17.9834 12 18.625V18.625C12.5703 19.2666 12.5703 20.2334 12 20.875L11 22" stroke="currentColor" stroke-linecap="round" stroke-linejoin="round"/><path d="M16 13L17 14.125C17.5703 14.7666 17.5703 15.7334 17 16.375V16.375C16.4297 17.0166 16.4297 17.9834 17 18.625V18.625C17.5703 19.2666 17.5703 20.2334 17 20.875L16 22" stroke="currentColor" stroke-linecap="round" stroke-linejoin="round"/></symbol>
  </defs>
<g fill="currentColor">
    <use href="#fa-brands_fa-linux" x="0" y="24" width="24" height="24"/><text x="42" y="40" style="font-size:12px; font-family:monospace;">x=0 y=24 id=fa-brands_fa-linux</text>
    <use href="#fa-solid_fa-bug" x="0" y="48" width="24" height="24"/><text x="42" y="64" style="font-size:12px; font-family:monospace;">x=0 y=48 id=fa-solid_fa-bug</text>
    <use href="#bi_bi-cookie" x="0" y="72" width="24" height="24"/><text x="42" y="88" style="font-size:12px; font-family:monospace;">x=0 y=72 id=bi_bi-cookie</text>
    <use href="#teenyicons_teenyicons-pdf-solid" x="0" y="96" width="24" height="24"/><text x="42" y="112" style="font-size:12px; font-family:monospace;">x=0 y=96 id=teenyicons_teenyicons-pdf-solid</text>
    <use href="#teenyicons_teenyicons-cog-outline" x="0" y="120" width="24" height="24"/><text x="42" y="136" style="font-size:12px; font-family:monospace;">x=0 y=120 id=teenyicons_teenyicons-cog-outline</text>
    <use href="#ic_ic-baseline-alarm-add" fill="currentColor" x="0" y="144" width="24" height="24"/><text x="42" y="160" style="font-size:12px; font-family:monospace;">x=0 y=144 id=ic_ic-baseline-alarm-add</text>
    <use href="#ic_ic-twotone-assignment-ind" x="0" y="168" width="24" height="24"/><text x="42" y="184" style="font-size:12px; font-family:monospace;">x=0 y=168 id=ic_ic-twotone-assignment-ind</text>
    <use href="#ai_ai-springer-square" x="0" y="192" width="24" height="24"/><text x="42" y="208" style="font-size:12px; font-family:monospace;">x=0 y=192 id=ai_ai-springer-square</text>
    <use href="#oct_oct-people-24" x="0" y="216" width="24" height="24"/><text x="42" y="232" style="font-size:12px; font-family:monospace;">x=0 y=216 id=oct_oct-people-24</text>
    <use href="#lucide_lucide-rabbit" x="0" y="240" width="24" height="24"/><text x="42" y="256" style="font-size:12px; font-family:monospace;">x=0 y=240 id=lucide_lucide-rabbit</text>
    <use href="#hero-24-outline_hero-truck" x="0" y="264" width="24" height="24"/><text x="42" y="280" style="font-size:12px; font-family:monospace;">x=0 y=264 id=hero-24-outline_hero-truck</text>
    <use href="#tabler-outline_tabler-plant" x="0" y="288" width="24" height="24"/><text x="42" y="304" style="font-size:12px; font-family:monospace;">x=0 y=288 id=tabler-outline_tabler-plant</text>
    <use href="#phosphor-duotone_phosphor-bathtub" x="0" y="312" width="24" height="24"/><text x="42" y="328" style="font-size:12px; font-family:monospace;">x=0 y=312 id=phosphor-duotone_phosphor-bathtub</text>
    <use href="#radix_radix-rocket" x="0" y="336" width="24" height="24"/><text x="42" y="352" style="font-size:12px; font-family:monospace;">x=0 y=336 id=radix_radix-rocket</text>
    <use href="#clr-essential_clr-objects-solid" x="0" y="360" width="24" height="24"/><text x="42" y="376" style="font-size:12px; font-family:monospace;">x=0 y=360 id=clr-essential_clr-objects-solid</text>
    <use href="#simple_simple-buymeacoffee" x="0" y="384" width="24" height="24"/><text x="42" y="400" style="font-size:12px; font-family:monospace;">x=0 y=384 id=simple_simple-buymeacoffee</text>
    <use href="#iconoir-regular_iconoir-jellyfish" x="0" y="408" width="24" height="24"/><text x="42" y="424" style="font-size:12px; font-family:monospace;">x=0 y=408 id=iconoir-regular_iconoir-jellyfish</text>
    </g>
    </svg>